<svg width="20" height="20" viewBox="0 0 20 20" fill="none" xmlns="http://www.w3.org/2000/svg">
<path fill-rule="evenodd" clip-rule="evenodd" d="M1.97939 4.72399C2.22121 3.32008 3.33711 2.28808 4.74548 2.07379C6.09493 1.86846 7.94616 1.66602 9.99984 1.66602C12.0535 1.66602 13.9047 1.86846 15.2542 2.07379C16.6626 2.28808 17.7785 3.32008 18.0203 4.72399C18.1888 5.70245 18.3332 6.94539 18.3332 8.33268C18.3332 9.71997 18.1888 10.9629 18.0203 11.9414C17.7785 13.3453 16.6626 14.3773 15.2542 14.5916C14.0197 14.7794 12.3652 14.9648 10.5199 14.9951L5.42378 18.0064C4.86826 18.3347 4.1665 17.9342 4.1665 17.289V14.4526C3.03864 14.0776 2.18697 13.1465 1.97939 11.9414C1.81085 10.9629 1.6665 9.71997 1.6665 8.33268C1.6665 6.94539 1.81085 5.70245 1.97939 4.72399ZM4.99984 6.66602C4.99984 6.20578 5.37293 5.83268 5.83317 5.83268H14.1665C14.6267 5.83268 14.9998 6.20578 14.9998 6.66602C14.9998 7.12625 14.6267 7.49935 14.1665 7.49935H5.83317C5.37293 7.49935 4.99984 7.12625 4.99984 6.66602ZM4.99984 9.99935C4.99984 9.53911 5.37293 9.16602 5.83317 9.16602H9.1665C9.62674 9.16602 9.99984 9.53911 9.99984 9.99935C9.99984 10.4596 9.62674 10.8327 9.1665 10.8327H5.83317C5.37293 10.8327 4.99984 10.4596 4.99984 9.99935Z" fill="#FCFCFD"/>
</svg>
