<svg width="18" height="18" viewBox="0 0 18 18" fill="none" xmlns="http://www.w3.org/2000/svg">
<path fill-rule="evenodd" clip-rule="evenodd" d="M7.38876 15.1667C7.49445 16.6162 8.58024 17.7387 10.0272 17.8747C10.7805 17.9454 11.6633 17.9996 12.6003 17.9996C13.5374 17.9996 14.4202 17.9454 15.1735 17.8747C16.6205 17.7387 17.7063 16.6162 17.8119 15.1667C17.911 13.8086 18.0002 11.806 18.0002 8.99982C18.0002 6.19367 17.911 4.19106 17.8119 2.8329C17.7063 1.38346 16.6205 0.260906 15.1735 0.124973C14.4202 0.0541968 13.5374 0 12.6003 0C11.6633 0 10.7805 0.0541969 10.0272 0.124973C8.58024 0.260906 7.49445 1.38346 7.38876 2.8329C7.30067 4.04116 7.22028 5.75947 7.20361 8.09984H11.7003C12.1974 8.09984 12.6003 8.50277 12.6003 8.99982C12.6003 9.49687 12.1974 9.8998 11.7003 9.8998H7.20361C7.22028 12.2402 7.30067 13.9585 7.38876 15.1667Z" fill="white"/>
<path fill-rule="evenodd" clip-rule="evenodd" d="M4.6863 11.5127C5.03777 11.8642 5.03777 12.434 4.6863 12.7855C4.33484 13.1369 3.765 13.1369 3.41354 12.7855L0.263599 9.63552C-0.0878662 9.28406 -0.0878662 8.71422 0.263599 8.36275L3.41354 5.21282C3.765 4.86135 4.33484 4.86135 4.6863 5.21282C5.03777 5.56428 5.03777 6.13412 4.6863 6.48558L3.07273 8.09916H7.19985V9.89912L3.07273 9.89912L4.6863 11.5127Z" fill="white"/>
</svg>
