<svg width="20" height="20" viewBox="0 0 20 20" fill="none" xmlns="http://www.w3.org/2000/svg">
<g clip-path="url(#clip0_3940_84293)">
<path fill-rule="evenodd" clip-rule="evenodd" d="M4.16683 7.5C4.62707 7.5 5.00016 7.8731 5.00016 8.33333V9.16667C5.00016 11.9281 7.23874 14.1667 10.0002 14.1667C12.7616 14.1667 15.0002 11.9281 15.0002 9.16667V8.33333C15.0002 7.8731 15.3733 7.5 15.8335 7.5C16.2937 7.5 16.6668 7.8731 16.6668 8.33333V9.16667C16.6668 12.5663 14.1221 15.3717 10.8335 15.7818V18.3333H13.3335C13.7937 18.3333 14.1668 18.7064 14.1668 19.1667C14.1668 19.6269 13.7937 20 13.3335 20H10.8335H9.16683H6.66683C6.20659 20 5.8335 19.6269 5.8335 19.1667C5.8335 18.7064 6.20659 18.3333 6.66683 18.3333H9.16683V15.7818C5.87824 15.3717 3.3335 12.5663 3.3335 9.16667V8.33333C3.3335 7.8731 3.70659 7.5 4.16683 7.5Z" fill="#FCFCFD"/>
<path d="M6.6665 3.33333C6.6665 1.49238 8.15889 0 9.99984 0C11.8408 0 13.3332 1.49238 13.3332 3.33333V9.16667C13.3332 11.0076 11.8408 12.5 9.99984 12.5C8.15889 12.5 6.6665 11.0076 6.6665 9.16667V3.33333Z" fill="#FCFCFD"/>
</g>
<defs>
<clipPath id="clip0_3940_84293">
<rect width="20" height="20" fill="white"/>
</clipPath>
</defs>
</svg>
