<svg width="92" height="45" viewBox="0 0 92 45" fill="none" xmlns="http://www.w3.org/2000/svg">
<rect x="1" y="1" width="90" height="43" rx="14" stroke="#1F1F2C" stroke-width="2"/>
<path d="M31.0391 18.57C32.0591 18.57 32.8791 18.885 33.4991 19.515C34.1291 20.135 34.4441 21.005 34.4441 22.125V27H32.3441V22.41C32.3441 21.76 32.1791 21.265 31.8491 20.925C31.5191 20.575 31.0691 20.4 30.4991 20.4C29.9291 20.4 29.4741 20.575 29.1341 20.925C28.8041 21.265 28.6391 21.76 28.6391 22.41V27H26.5391V22.41C26.5391 21.76 26.3741 21.265 26.0441 20.925C25.7141 20.575 25.2641 20.4 24.6941 20.4C24.1141 20.4 23.6541 20.575 23.3141 20.925C22.9841 21.265 22.8191 21.76 22.8191 22.41V27H20.7191V18.69H22.8191V19.695C23.0891 19.345 23.4341 19.07 23.8541 18.87C24.2841 18.67 24.7541 18.57 25.2641 18.57C25.9141 18.57 26.4941 18.71 27.0041 18.99C27.5141 19.26 27.9091 19.65 28.1891 20.16C28.4591 19.68 28.8491 19.295 29.3591 19.005C29.8791 18.715 30.4391 18.57 31.0391 18.57ZM40.1269 27.135C39.3269 27.135 38.6069 26.96 37.9669 26.61C37.3269 26.25 36.8219 25.745 36.4519 25.095C36.0919 24.445 35.9119 23.695 35.9119 22.845C35.9119 21.995 36.0969 21.245 36.4669 20.595C36.8469 19.945 37.3619 19.445 38.0119 19.095C38.6619 18.735 39.3869 18.555 40.1869 18.555C40.9869 18.555 41.7119 18.735 42.3619 19.095C43.0119 19.445 43.5219 19.945 43.8919 20.595C44.2719 21.245 44.4619 21.995 44.4619 22.845C44.4619 23.695 44.2669 24.445 43.8769 25.095C43.4969 25.745 42.9769 26.25 42.3169 26.61C41.6669 26.96 40.9369 27.135 40.1269 27.135ZM40.1269 25.305C40.5069 25.305 40.8619 25.215 41.1919 25.035C41.5319 24.845 41.8019 24.565 42.0019 24.195C42.2019 23.825 42.3019 23.375 42.3019 22.845C42.3019 22.055 42.0919 21.45 41.6719 21.03C41.2619 20.6 40.7569 20.385 40.1569 20.385C39.5569 20.385 39.0519 20.6 38.6419 21.03C38.2419 21.45 38.0419 22.055 38.0419 22.845C38.0419 23.635 38.2369 24.245 38.6269 24.675C39.0269 25.095 39.5269 25.305 40.1269 25.305ZM53.8473 18.69V27H51.7323V25.95C51.4623 26.31 51.1073 26.595 50.6673 26.805C50.2373 27.005 49.7673 27.105 49.2573 27.105C48.6073 27.105 48.0323 26.97 47.5323 26.7C47.0323 26.42 46.6373 26.015 46.3473 25.485C46.0673 24.945 45.9273 24.305 45.9273 23.565V18.69H48.0273V23.265C48.0273 23.925 48.1923 24.435 48.5223 24.795C48.8523 25.145 49.3023 25.32 49.8723 25.32C50.4523 25.32 50.9073 25.145 51.2373 24.795C51.5673 24.435 51.7323 23.925 51.7323 23.265V18.69H53.8473ZM59.0993 27.135C58.4193 27.135 57.8093 27.015 57.2693 26.775C56.7293 26.525 56.2993 26.19 55.9793 25.77C55.6693 25.35 55.4993 24.885 55.4693 24.375H57.5843C57.6243 24.695 57.7793 24.96 58.0493 25.17C58.3293 25.38 58.6743 25.485 59.0843 25.485C59.4843 25.485 59.7943 25.405 60.0143 25.245C60.2443 25.085 60.3593 24.88 60.3593 24.63C60.3593 24.36 60.2193 24.16 59.9393 24.03C59.6693 23.89 59.2343 23.74 58.6343 23.58C58.0143 23.43 57.5043 23.275 57.1043 23.115C56.7143 22.955 56.3743 22.71 56.0843 22.38C55.8043 22.05 55.6643 21.605 55.6643 21.045C55.6643 20.585 55.7943 20.165 56.0543 19.785C56.3243 19.405 56.7043 19.105 57.1943 18.885C57.6943 18.665 58.2793 18.555 58.9493 18.555C59.9393 18.555 60.7293 18.805 61.3193 19.305C61.9093 19.795 62.2343 20.46 62.2943 21.3H60.2843C60.2543 20.97 60.1143 20.71 59.8643 20.52C59.6243 20.32 59.2993 20.22 58.8893 20.22C58.5093 20.22 58.2143 20.29 58.0043 20.43C57.8043 20.57 57.7043 20.765 57.7043 21.015C57.7043 21.295 57.8443 21.51 58.1243 21.66C58.4043 21.8 58.8393 21.945 59.4293 22.095C60.0293 22.245 60.5243 22.4 60.9143 22.56C61.3043 22.72 61.6393 22.97 61.9193 23.31C62.2093 23.64 62.3593 24.08 62.3693 24.63C62.3693 25.11 62.2343 25.54 61.9643 25.92C61.7043 26.3 61.3243 26.6 60.8243 26.82C60.3343 27.03 59.7593 27.135 59.0993 27.135ZM71.8181 22.665C71.8181 22.965 71.7981 23.235 71.7581 23.475H65.6831C65.7331 24.075 65.9431 24.545 66.3131 24.885C66.6831 25.225 67.1381 25.395 67.6781 25.395C68.4581 25.395 69.0131 25.06 69.3431 24.39H71.6081C71.3681 25.19 70.9081 25.85 70.2281 26.37C69.5481 26.88 68.7131 27.135 67.7231 27.135C66.9231 27.135 66.2031 26.96 65.5631 26.61C64.9331 26.25 64.4381 25.745 64.0781 25.095C63.7281 24.445 63.5531 23.695 63.5531 22.845C63.5531 21.985 63.7281 21.23 64.0781 20.58C64.4281 19.93 64.9181 19.43 65.5481 19.08C66.1781 18.73 66.9031 18.555 67.7231 18.555C68.5131 18.555 69.2181 18.725 69.8381 19.065C70.4681 19.405 70.9531 19.89 71.2931 20.52C71.6431 21.14 71.8181 21.855 71.8181 22.665ZM69.6431 22.065C69.6331 21.525 69.4381 21.095 69.0581 20.775C68.6781 20.445 68.2131 20.28 67.6631 20.28C67.1431 20.28 66.7031 20.44 66.3431 20.76C65.9931 21.07 65.7781 21.505 65.6981 22.065H69.6431Z" fill="#1F1F2C"/>
</svg>
