<svg width="170" height="111" viewBox="0 0 170 111" fill="none" xmlns="http://www.w3.org/2000/svg">
<circle cx="25" cy="25" r="24" fill="white" stroke="black" stroke-width="2"/>
<path d="M29.5489 36.3L26.0739 32.825C25.2239 33.0583 24.3573 33.175 23.4739 33.175C21.8573 33.175 20.3823 32.8 19.0489 32.05C17.7156 31.2833 16.6573 30.225 15.8739 28.875C15.1073 27.5083 14.7239 25.975 14.7239 24.275C14.7239 22.575 15.1073 21.05 15.8739 19.7C16.6573 18.3333 17.7156 17.275 19.0489 16.525C20.3823 15.7583 21.8573 15.375 23.4739 15.375C25.1073 15.375 26.5906 15.7583 27.9239 16.525C29.2573 17.275 30.3073 18.325 31.0739 19.675C31.8406 21.025 32.2239 22.5583 32.2239 24.275C32.2239 25.9417 31.8573 27.4417 31.1239 28.775C30.3906 30.1083 29.3823 31.1583 28.0989 31.925L32.4989 36.3H29.5489ZM17.0489 24.275C17.0489 25.6583 17.3239 26.875 17.8739 27.925C18.4406 28.975 19.2073 29.7833 20.1739 30.35C21.1573 30.9167 22.2573 31.2 23.4739 31.2C24.6906 31.2 25.7823 30.9167 26.7489 30.35C27.7323 29.7833 28.4989 28.975 29.0489 27.925C29.6156 26.875 29.8989 25.6583 29.8989 24.275C29.8989 22.875 29.6156 21.6583 29.0489 20.625C28.4989 19.575 27.7406 18.7667 26.7739 18.2C25.8073 17.6333 24.7073 17.35 23.4739 17.35C22.2406 17.35 21.1406 17.6333 20.1739 18.2C19.2073 18.7667 18.4406 19.575 17.8739 20.625C17.3239 21.6583 17.0489 22.875 17.0489 24.275Z" fill="black"/>
<circle cx="85" cy="25" r="24" fill="white" stroke="#C5C5C5" stroke-width="2"/>
<path d="M96.1302 15.575L91.0802 33H88.5302L84.4802 18.975L80.2802 33L77.7552 33.025L72.8802 15.575H75.3052L79.1052 30.35L83.3052 15.575H85.8552L89.8552 30.3L93.6802 15.575H96.1302Z" fill="#C5C5C5"/>
<circle cx="145" cy="25" r="24" fill="white" stroke="black" stroke-width="2"/>
<path d="M142.291 17.425V23.25H148.641V25.125H142.291V31.125H149.391V33H140.016V15.55H149.391V17.425H142.291Z" fill="black"/>
<circle cx="25" cy="86" r="24" fill="white" stroke="#C5C5C5" stroke-width="2"/>
<path d="M28.3021 91.125H20.7021L19.3021 95H16.9021L23.2021 77.675H25.8271L32.1021 95H29.7021L28.3021 91.125ZM27.6521 89.275L24.5021 80.475L21.3521 89.275H27.6521Z" fill="#C5C5C5"/>
<circle cx="85" cy="86" r="24" fill="white" stroke="#C5C5C5" stroke-width="2"/>
<path d="M84.6136 95.175C83.4636 95.175 82.4302 94.975 81.5136 94.575C80.6136 94.1583 79.9052 93.5917 79.3886 92.875C78.8719 92.1417 78.6052 91.3 78.5886 90.35H81.0136C81.0969 91.1667 81.4302 91.8583 82.0136 92.425C82.6136 92.975 83.4802 93.25 84.6136 93.25C85.6969 93.25 86.5469 92.9833 87.1636 92.45C87.7969 91.9 88.1136 91.2 88.1136 90.35C88.1136 89.6833 87.9302 89.1417 87.5636 88.725C87.1969 88.3083 86.7386 87.9917 86.1886 87.775C85.6386 87.5583 84.8969 87.325 83.9636 87.075C82.8136 86.775 81.8886 86.475 81.1886 86.175C80.5052 85.875 79.9136 85.4083 79.4136 84.775C78.9302 84.125 78.6886 83.2583 78.6886 82.175C78.6886 81.225 78.9302 80.3833 79.4136 79.65C79.8969 78.9167 80.5719 78.35 81.4386 77.95C82.3219 77.55 83.3302 77.35 84.4636 77.35C86.0969 77.35 87.4302 77.7583 88.4636 78.575C89.5136 79.3917 90.1052 80.475 90.2386 81.825H87.7386C87.6552 81.1583 87.3052 80.575 86.6886 80.075C86.0719 79.5583 85.2552 79.3 84.2386 79.3C83.2886 79.3 82.5136 79.55 81.9136 80.05C81.3136 80.5333 81.0136 81.2167 81.0136 82.1C81.0136 82.7333 81.1886 83.25 81.5386 83.65C81.9052 84.05 82.3469 84.3583 82.8636 84.575C83.3969 84.775 84.1386 85.0083 85.0886 85.275C86.2386 85.5917 87.1636 85.9083 87.8636 86.225C88.5636 86.525 89.1636 87 89.6636 87.65C90.1636 88.2833 90.4136 89.15 90.4136 90.25C90.4136 91.1 90.1886 91.9 89.7386 92.65C89.2886 93.4 88.6219 94.0083 87.7386 94.475C86.8552 94.9417 85.8136 95.175 84.6136 95.175Z" fill="#C5C5C5"/>
<circle cx="145" cy="86" r="24" fill="white" stroke="#C5C5C5" stroke-width="2"/>
<path d="M144.012 77.575C145.912 77.575 147.554 77.9333 148.937 78.65C150.337 79.35 151.404 80.3583 152.137 81.675C152.887 82.9917 153.262 84.5417 153.262 86.325C153.262 88.1083 152.887 89.6583 152.137 90.975C151.404 92.275 150.337 93.275 148.937 93.975C147.554 94.6583 145.912 95 144.012 95H138.587V77.575H144.012ZM144.012 93.125C146.262 93.125 147.979 92.5333 149.162 91.35C150.345 90.15 150.937 88.475 150.937 86.325C150.937 84.1583 150.337 82.4667 149.137 81.25C147.954 80.0333 146.245 79.425 144.012 79.425H140.862V93.125H144.012Z" fill="#C5C5C5"/>
</svg>
