<svg width="92" height="45" viewBox="0 0 92 45" fill="none" xmlns="http://www.w3.org/2000/svg">
<rect x="1" y="1" width="90" height="43" rx="14" stroke="#1F1F2C" stroke-width="2"/>
<path d="M33.5886 27.135C32.9086 27.135 32.2986 27.015 31.7586 26.775C31.2186 26.525 30.7886 26.19 30.4686 25.77C30.1586 25.35 29.9886 24.885 29.9586 24.375H32.0736C32.1136 24.695 32.2686 24.96 32.5386 25.17C32.8186 25.38 33.1636 25.485 33.5736 25.485C33.9736 25.485 34.2836 25.405 34.5036 25.245C34.7336 25.085 34.8486 24.88 34.8486 24.63C34.8486 24.36 34.7086 24.16 34.4286 24.03C34.1586 23.89 33.7236 23.74 33.1236 23.58C32.5036 23.43 31.9936 23.275 31.5936 23.115C31.2036 22.955 30.8636 22.71 30.5736 22.38C30.2936 22.05 30.1536 21.605 30.1536 21.045C30.1536 20.585 30.2836 20.165 30.5436 19.785C30.8136 19.405 31.1936 19.105 31.6836 18.885C32.1836 18.665 32.7686 18.555 33.4386 18.555C34.4286 18.555 35.2186 18.805 35.8086 19.305C36.3986 19.795 36.7236 20.46 36.7836 21.3H34.7736C34.7436 20.97 34.6036 20.71 34.3536 20.52C34.1136 20.32 33.7886 20.22 33.3786 20.22C32.9986 20.22 32.7036 20.29 32.4936 20.43C32.2936 20.57 32.1936 20.765 32.1936 21.015C32.1936 21.295 32.3336 21.51 32.6136 21.66C32.8936 21.8 33.3286 21.945 33.9186 22.095C34.5186 22.245 35.0136 22.4 35.4036 22.56C35.7936 22.72 36.1286 22.97 36.4086 23.31C36.6986 23.64 36.8486 24.08 36.8586 24.63C36.8586 25.11 36.7236 25.54 36.4536 25.92C36.1936 26.3 35.8136 26.6 35.3136 26.82C34.8236 27.03 34.2486 27.135 33.5886 27.135ZM43.2624 18.57C43.8924 18.57 44.4524 18.71 44.9424 18.99C45.4324 19.26 45.8124 19.665 46.0824 20.205C46.3624 20.735 46.5024 21.375 46.5024 22.125V27H44.4024V22.41C44.4024 21.75 44.2374 21.245 43.9074 20.895C43.5774 20.535 43.1274 20.355 42.5574 20.355C41.9774 20.355 41.5174 20.535 41.1774 20.895C40.8474 21.245 40.6824 21.75 40.6824 22.41V27H38.5824V15.9H40.6824V19.725C40.9524 19.365 41.3124 19.085 41.7624 18.885C42.2124 18.675 42.7124 18.57 43.2624 18.57ZM49.5644 17.7C49.1944 17.7 48.8844 17.585 48.6344 17.355C48.3944 17.115 48.2744 16.82 48.2744 16.47C48.2744 16.12 48.3944 15.83 48.6344 15.6C48.8844 15.36 49.1944 15.24 49.5644 15.24C49.9344 15.24 50.2394 15.36 50.4794 15.6C50.7294 15.83 50.8544 16.12 50.8544 16.47C50.8544 16.82 50.7294 17.115 50.4794 17.355C50.2394 17.585 49.9344 17.7 49.5644 17.7ZM50.5994 18.69V27H48.4994V18.69H50.5994ZM56.4842 20.415H55.0292V27H52.8992V20.415H51.9542V18.69H52.8992V18.27C52.8992 17.25 53.1892 16.5 53.7692 16.02C54.3492 15.54 55.2242 15.315 56.3942 15.345V17.115C55.8842 17.105 55.5292 17.19 55.3292 17.37C55.1292 17.55 55.0292 17.875 55.0292 18.345V18.69H56.4842V20.415ZM60.2901 20.415V24.435C60.2901 24.715 60.3551 24.92 60.4851 25.05C60.6251 25.17 60.8551 25.23 61.1751 25.23H62.1501V27H60.8301C59.0601 27 58.1751 26.14 58.1751 24.42V20.415H57.1851V18.69H58.1751V16.635H60.2901V18.69H62.1501V20.415H60.2901Z" fill="#1F1F2C"/>
</svg>
