<svg width="128" height="45" viewBox="0 0 128 45" fill="none" xmlns="http://www.w3.org/2000/svg">
<rect x="1" y="1" width="126" height="43" rx="14" stroke="#1F1F2C" stroke-width="2"/>
<path d="M31.1232 27.135C30.4432 27.135 29.8332 27.015 29.2932 26.775C28.7532 26.525 28.3232 26.19 28.0032 25.77C27.6932 25.35 27.5232 24.885 27.4932 24.375H29.6082C29.6482 24.695 29.8032 24.96 30.0732 25.17C30.3532 25.38 30.6982 25.485 31.1082 25.485C31.5082 25.485 31.8182 25.405 32.0382 25.245C32.2682 25.085 32.3832 24.88 32.3832 24.63C32.3832 24.36 32.2432 24.16 31.9632 24.03C31.6932 23.89 31.2582 23.74 30.6582 23.58C30.0382 23.43 29.5282 23.275 29.1282 23.115C28.7382 22.955 28.3982 22.71 28.1082 22.38C27.8282 22.05 27.6882 21.605 27.6882 21.045C27.6882 20.585 27.8182 20.165 28.0782 19.785C28.3482 19.405 28.7282 19.105 29.2182 18.885C29.7182 18.665 30.3032 18.555 30.9732 18.555C31.9632 18.555 32.7532 18.805 33.3432 19.305C33.9332 19.795 34.2582 20.46 34.3182 21.3H32.3082C32.2782 20.97 32.1382 20.71 31.8882 20.52C31.6482 20.32 31.3232 20.22 30.9132 20.22C30.5332 20.22 30.2382 20.29 30.0282 20.43C29.8282 20.57 29.7282 20.765 29.7282 21.015C29.7282 21.295 29.8682 21.51 30.1482 21.66C30.4282 21.8 30.8632 21.945 31.4532 22.095C32.0532 22.245 32.5482 22.4 32.9382 22.56C33.3282 22.72 33.6632 22.97 33.9432 23.31C34.2332 23.64 34.3832 24.08 34.3932 24.63C34.3932 25.11 34.2582 25.54 33.9882 25.92C33.7282 26.3 33.3482 26.6 32.8482 26.82C32.3582 27.03 31.7832 27.135 31.1232 27.135ZM38.217 19.89C38.487 19.51 38.857 19.195 39.327 18.945C39.807 18.685 40.352 18.555 40.962 18.555C41.672 18.555 42.312 18.73 42.882 19.08C43.462 19.43 43.917 19.93 44.247 20.58C44.587 21.22 44.757 21.965 44.757 22.815C44.757 23.665 44.587 24.42 44.247 25.08C43.917 25.73 43.462 26.235 42.882 26.595C42.312 26.955 41.672 27.135 40.962 27.135C40.352 27.135 39.812 27.01 39.342 26.76C38.882 26.51 38.507 26.195 38.217 25.815V30.96H36.117V18.69H38.217V19.89ZM42.612 22.815C42.612 22.315 42.507 21.885 42.297 21.525C42.097 21.155 41.827 20.875 41.487 20.685C41.157 20.495 40.797 20.4 40.407 20.4C40.027 20.4 39.667 20.5 39.327 20.7C38.997 20.89 38.727 21.17 38.517 21.54C38.317 21.91 38.217 22.345 38.217 22.845C38.217 23.345 38.317 23.78 38.517 24.15C38.727 24.52 38.997 24.805 39.327 25.005C39.667 25.195 40.027 25.29 40.407 25.29C40.797 25.29 41.157 25.19 41.487 24.99C41.827 24.79 42.097 24.505 42.297 24.135C42.507 23.765 42.612 23.325 42.612 22.815ZM45.743 22.815C45.743 21.975 45.908 21.23 46.238 20.58C46.578 19.93 47.033 19.43 47.603 19.08C48.183 18.73 48.828 18.555 49.538 18.555C50.158 18.555 50.698 18.68 51.158 18.93C51.628 19.18 52.003 19.495 52.283 19.875V18.69H54.398V27H52.283V25.785C52.013 26.175 51.638 26.5 51.158 26.76C50.688 27.01 50.143 27.135 49.523 27.135C48.823 27.135 48.183 26.955 47.603 26.595C47.033 26.235 46.578 25.73 46.238 25.08C45.908 24.42 45.743 23.665 45.743 22.815ZM52.283 22.845C52.283 22.335 52.183 21.9 51.983 21.54C51.783 21.17 51.513 20.89 51.173 20.7C50.833 20.5 50.468 20.4 50.078 20.4C49.688 20.4 49.328 20.495 48.998 20.685C48.668 20.875 48.398 21.155 48.188 21.525C47.988 21.885 47.888 22.315 47.888 22.815C47.888 23.315 47.988 23.755 48.188 24.135C48.398 24.505 48.668 24.79 48.998 24.99C49.338 25.19 49.698 25.29 50.078 25.29C50.468 25.29 50.833 25.195 51.173 25.005C51.513 24.805 51.783 24.525 51.983 24.165C52.183 23.795 52.283 23.355 52.283 22.845ZM55.9091 22.845C55.9091 21.985 56.0841 21.235 56.4341 20.595C56.7841 19.945 57.2691 19.445 57.8891 19.095C58.5091 18.735 59.2191 18.555 60.0191 18.555C61.0491 18.555 61.8991 18.815 62.5691 19.335C63.2491 19.845 63.7041 20.565 63.9341 21.495H61.6691C61.5491 21.135 61.3441 20.855 61.0541 20.655C60.7741 20.445 60.4241 20.34 60.0041 20.34C59.4041 20.34 58.9291 20.56 58.5791 21C58.2291 21.43 58.0541 22.045 58.0541 22.845C58.0541 23.635 58.2291 24.25 58.5791 24.69C58.9291 25.12 59.4041 25.335 60.0041 25.335C60.8541 25.335 61.4091 24.955 61.6691 24.195H63.9341C63.7041 25.095 63.2491 25.81 62.5691 26.34C61.8891 26.87 61.0391 27.135 60.0191 27.135C59.2191 27.135 58.5091 26.96 57.8891 26.61C57.2691 26.25 56.7841 25.75 56.4341 25.11C56.0841 24.46 55.9091 23.705 55.9091 22.845ZM73.1975 22.665C73.1975 22.965 73.1775 23.235 73.1375 23.475H67.0625C67.1125 24.075 67.3225 24.545 67.6925 24.885C68.0625 25.225 68.5175 25.395 69.0575 25.395C69.8375 25.395 70.3925 25.06 70.7225 24.39H72.9875C72.7475 25.19 72.2875 25.85 71.6075 26.37C70.9275 26.88 70.0925 27.135 69.1025 27.135C68.3025 27.135 67.5825 26.96 66.9425 26.61C66.3125 26.25 65.8175 25.745 65.4575 25.095C65.1075 24.445 64.9325 23.695 64.9325 22.845C64.9325 21.985 65.1075 21.23 65.4575 20.58C65.8075 19.93 66.2975 19.43 66.9275 19.08C67.5575 18.73 68.2825 18.555 69.1025 18.555C69.8925 18.555 70.5975 18.725 71.2175 19.065C71.8475 19.405 72.3325 19.89 72.6725 20.52C73.0225 21.14 73.1975 21.855 73.1975 22.665ZM71.0225 22.065C71.0125 21.525 70.8175 21.095 70.4375 20.775C70.0575 20.445 69.5925 20.28 69.0425 20.28C68.5225 20.28 68.0825 20.44 67.7225 20.76C67.3725 21.07 67.1575 21.505 67.0775 22.065H71.0225ZM76.8303 19.905C77.1003 19.505 77.4703 19.18 77.9403 18.93C78.4203 18.68 78.9653 18.555 79.5753 18.555C80.2853 18.555 80.9253 18.73 81.4953 19.08C82.0753 19.43 82.5303 19.93 82.8603 20.58C83.2003 21.22 83.3703 21.965 83.3703 22.815C83.3703 23.665 83.2003 24.42 82.8603 25.08C82.5303 25.73 82.0753 26.235 81.4953 26.595C80.9253 26.955 80.2853 27.135 79.5753 27.135C78.9553 27.135 78.4103 27.015 77.9403 26.775C77.4803 26.525 77.1103 26.205 76.8303 25.815V27H74.7303V15.9H76.8303V19.905ZM81.2253 22.815C81.2253 22.315 81.1203 21.885 80.9103 21.525C80.7103 21.155 80.4403 20.875 80.1003 20.685C79.7703 20.495 79.4103 20.4 79.0203 20.4C78.6403 20.4 78.2803 20.5 77.9403 20.7C77.6103 20.89 77.3403 21.17 77.1303 21.54C76.9303 21.91 76.8303 22.345 76.8303 22.845C76.8303 23.345 76.9303 23.78 77.1303 24.15C77.3403 24.52 77.6103 24.805 77.9403 25.005C78.2803 25.195 78.6403 25.29 79.0203 25.29C79.4103 25.29 79.7703 25.19 80.1003 24.99C80.4403 24.79 80.7103 24.505 80.9103 24.135C81.1203 23.765 81.2253 23.325 81.2253 22.815ZM84.3563 22.815C84.3563 21.975 84.5213 21.23 84.8513 20.58C85.1913 19.93 85.6463 19.43 86.2163 19.08C86.7963 18.73 87.4413 18.555 88.1513 18.555C88.7713 18.555 89.3113 18.68 89.7713 18.93C90.2413 19.18 90.6163 19.495 90.8963 19.875V18.69H93.0113V27H90.8963V25.785C90.6263 26.175 90.2513 26.5 89.7713 26.76C89.3013 27.01 88.7563 27.135 88.1363 27.135C87.4363 27.135 86.7963 26.955 86.2163 26.595C85.6463 26.235 85.1913 25.73 84.8513 25.08C84.5213 24.42 84.3563 23.665 84.3563 22.815ZM90.8963 22.845C90.8963 22.335 90.7963 21.9 90.5963 21.54C90.3963 21.17 90.1263 20.89 89.7863 20.7C89.4463 20.5 89.0813 20.4 88.6913 20.4C88.3013 20.4 87.9413 20.495 87.6113 20.685C87.2813 20.875 87.0113 21.155 86.8013 21.525C86.6013 21.885 86.5013 22.315 86.5013 22.815C86.5013 23.315 86.6013 23.755 86.8013 24.135C87.0113 24.505 87.2813 24.79 87.6113 24.99C87.9513 25.19 88.3113 25.29 88.6913 25.29C89.0813 25.29 89.4463 25.195 89.7863 25.005C90.1263 24.805 90.3963 24.525 90.5963 24.165C90.7963 23.795 90.8963 23.355 90.8963 22.845ZM97.1623 19.98C97.4323 19.54 97.7823 19.195 98.2123 18.945C98.6523 18.695 99.1523 18.57 99.7123 18.57V20.775H99.1573C98.4973 20.775 97.9973 20.93 97.6573 21.24C97.3273 21.55 97.1623 22.09 97.1623 22.86V27H95.0623V18.69H97.1623V19.98Z" fill="#1F1F2C"/>
</svg>
