<svg width="198" height="126" viewBox="0 0 198 126" fill="none" xmlns="http://www.w3.org/2000/svg">
<circle cx="40" cy="40" r="24" fill="white" stroke="#C5C5C5" stroke-width="2"/>
<path d="M44.5489 51.3L41.0739 47.825C40.2239 48.0583 39.3573 48.175 38.4739 48.175C36.8573 48.175 35.3823 47.8 34.0489 47.05C32.7156 46.2833 31.6573 45.225 30.8739 43.875C30.1073 42.5083 29.7239 40.975 29.7239 39.275C29.7239 37.575 30.1073 36.05 30.8739 34.7C31.6573 33.3333 32.7156 32.275 34.0489 31.525C35.3823 30.7583 36.8573 30.375 38.4739 30.375C40.1073 30.375 41.5906 30.7583 42.9239 31.525C44.2573 32.275 45.3073 33.325 46.0739 34.675C46.8406 36.025 47.2239 37.5583 47.2239 39.275C47.2239 40.9417 46.8573 42.4417 46.1239 43.775C45.3906 45.1083 44.3823 46.1583 43.0989 46.925L47.4989 51.3H44.5489ZM32.0489 39.275C32.0489 40.6583 32.3239 41.875 32.8739 42.925C33.4406 43.975 34.2073 44.7833 35.1739 45.35C36.1573 45.9167 37.2573 46.2 38.4739 46.2C39.6906 46.2 40.7823 45.9167 41.7489 45.35C42.7323 44.7833 43.4989 43.975 44.0489 42.925C44.6156 41.875 44.8989 40.6583 44.8989 39.275C44.8989 37.875 44.6156 36.6583 44.0489 35.625C43.4989 34.575 42.7406 33.7667 41.7739 33.2C40.8073 32.6333 39.7073 32.35 38.4739 32.35C37.2406 32.35 36.1406 32.6333 35.1739 33.2C34.2073 33.7667 33.4406 34.575 32.8739 35.625C32.3239 36.6583 32.0489 37.875 32.0489 39.275Z" fill="#C5C5C5"/>
<circle cx="100" cy="40" r="24" fill="white" stroke="black" stroke-width="2"/>
<path d="M111.13 30.575L106.08 48H103.53L99.4802 33.975L95.2802 48L92.7552 48.025L87.8802 30.575H90.3052L94.1052 45.35L98.3052 30.575H100.855L104.855 45.3L108.68 30.575H111.13Z" fill="black"/>
<circle cx="160" cy="40" r="24" fill="white" stroke="#C5C5C5" stroke-width="2"/>
<path d="M157.291 32.425V38.25H163.641V40.125H157.291V46.125H164.391V48H155.016V30.55H164.391V32.425H157.291Z" fill="#C5C5C5"/>
<circle cx="40" cy="101" r="24" fill="white" stroke="black" stroke-width="2"/>
<path d="M43.3021 106.125H35.7021L34.3021 110H31.9021L38.2021 92.675H40.8271L47.1021 110H44.7021L43.3021 106.125ZM42.6521 104.275L39.5021 95.475L36.3521 104.275H42.6521Z" fill="black"/>
<circle cx="100" cy="101" r="24" fill="white" stroke="black" stroke-width="2"/>
<path d="M99.6136 110.175C98.4636 110.175 97.4302 109.975 96.5136 109.575C95.6136 109.158 94.9052 108.592 94.3886 107.875C93.8719 107.142 93.6052 106.3 93.5886 105.35H96.0136C96.0969 106.167 96.4302 106.858 97.0136 107.425C97.6136 107.975 98.4802 108.25 99.6136 108.25C100.697 108.25 101.547 107.983 102.164 107.45C102.797 106.9 103.114 106.2 103.114 105.35C103.114 104.683 102.93 104.142 102.564 103.725C102.197 103.308 101.739 102.992 101.189 102.775C100.639 102.558 99.8969 102.325 98.9636 102.075C97.8136 101.775 96.8886 101.475 96.1886 101.175C95.5052 100.875 94.9136 100.408 94.4136 99.775C93.9302 99.125 93.6886 98.2583 93.6886 97.175C93.6886 96.225 93.9302 95.3833 94.4136 94.65C94.8969 93.9167 95.5719 93.35 96.4386 92.95C97.3219 92.55 98.3302 92.35 99.4636 92.35C101.097 92.35 102.43 92.7583 103.464 93.575C104.514 94.3917 105.105 95.475 105.239 96.825H102.739C102.655 96.1583 102.305 95.575 101.689 95.075C101.072 94.5583 100.255 94.3 99.2386 94.3C98.2886 94.3 97.5136 94.55 96.9136 95.05C96.3136 95.5333 96.0136 96.2167 96.0136 97.1C96.0136 97.7333 96.1886 98.25 96.5386 98.65C96.9052 99.05 97.3469 99.3583 97.8636 99.575C98.3969 99.775 99.1386 100.008 100.089 100.275C101.239 100.592 102.164 100.908 102.864 101.225C103.564 101.525 104.164 102 104.664 102.65C105.164 103.283 105.414 104.15 105.414 105.25C105.414 106.1 105.189 106.9 104.739 107.65C104.289 108.4 103.622 109.008 102.739 109.475C101.855 109.942 100.814 110.175 99.6136 110.175Z" fill="black"/>
<circle cx="160" cy="101" r="24" fill="white" stroke="black" stroke-width="2"/>
<path d="M159.012 92.575C160.912 92.575 162.554 92.9333 163.937 93.65C165.337 94.35 166.404 95.3583 167.137 96.675C167.887 97.9917 168.262 99.5417 168.262 101.325C168.262 103.108 167.887 104.658 167.137 105.975C166.404 107.275 165.337 108.275 163.937 108.975C162.554 109.658 160.912 110 159.012 110H153.587V92.575H159.012ZM159.012 108.125C161.262 108.125 162.979 107.533 164.162 106.35C165.345 105.15 165.937 103.475 165.937 101.325C165.937 99.1583 165.337 97.4667 164.137 96.25C162.954 95.0333 161.245 94.425 159.012 94.425H155.862V108.125H159.012Z" fill="black"/>
<path d="M100.354 0.646446C100.158 0.451184 99.8417 0.451184 99.6464 0.646446L96.4645 3.82843C96.2692 4.02369 96.2692 4.34027 96.4645 4.53553C96.6597 4.7308 96.9763 4.7308 97.1716 4.53553L100 1.70711L102.828 4.53553C103.024 4.7308 103.34 4.7308 103.536 4.53553C103.731 4.34027 103.731 4.02369 103.536 3.82843L100.354 0.646446ZM100.5 10V1H99.5V10H100.5Z" fill="black"/>
<path d="M0.646446 100.646C0.451184 100.842 0.451184 101.158 0.646446 101.354L3.82843 104.536C4.02369 104.731 4.34027 104.731 4.53553 104.536C4.7308 104.34 4.7308 104.024 4.53553 103.828L1.70711 101L4.53553 98.1716C4.7308 97.9763 4.7308 97.6597 4.53553 97.4645C4.34027 97.2692 4.02369 97.2692 3.82843 97.4645L0.646446 100.646ZM10 100.5H1V101.5H10V100.5Z" fill="black"/>
<path d="M197.354 101.354C197.549 101.158 197.549 100.842 197.354 100.646L194.172 97.4645C193.976 97.2692 193.66 97.2692 193.464 97.4645C193.269 97.6597 193.269 97.9763 193.464 98.1716L196.293 101L193.464 103.828C193.269 104.024 193.269 104.34 193.464 104.536C193.66 104.731 193.976 104.731 194.172 104.536L197.354 101.354ZM188 101.5H197V100.5H188V101.5Z" fill="black"/>
</svg>
