<svg width="20" height="20" viewBox="0 0 20 20" fill="none" xmlns="http://www.w3.org/2000/svg">
<path d="M16.6668 8.33464C16.6668 10.8346 15.3335 13.0013 13.3335 14.0846C13.3335 14.0846 13.1252 16.2513 12.9168 17.0846C12.5002 18.7513 7.50016 18.7513 7.0835 17.0846C6.87454 16.2488 6.66683 14.0846 6.66683 14.0846C4.66683 13.0013 3.3335 10.8346 3.3335 8.33464C3.3335 4.66797 6.3335 1.66797 10.0002 1.66797C13.6668 1.66797 16.6668 4.66797 16.6668 8.33464Z" stroke="black" stroke-width="1.5" stroke-miterlimit="10" stroke-linecap="round" stroke-linejoin="round"/>
<path d="M12.5 15.418C10.625 15.418 10 15.418 7.5 15.418" stroke="black" stroke-width="1.5" stroke-miterlimit="10" stroke-linecap="round" stroke-linejoin="round"/>
<path d="M10.5557 5.83203L8.3335 8.33203H11.6668L9.44461 10.832" stroke="black" stroke-width="1.5" stroke-linecap="round" stroke-linejoin="round"/>
</svg>
