<svg width="24" height="18" viewBox="0 0 24 18" fill="none" xmlns="http://www.w3.org/2000/svg">
<path d="M8.03872 0.668945C7.27614 0.668945 4.97706 1.60143 4.5647 1.78784C4.15235 1.97425 3.69438 2.55607 3.1747 3.51636C2.65501 4.47665 2.23737 5.59882 1.55952 7.25C0.881667 8.90119 0.723589 12.0851 0.746184 13.0567C0.768778 14.0283 0.880087 14.7866 1.87556 15.3614C2.87104 15.9361 3.75115 16.5366 4.67754 16.8982C5.60394 17.2597 6.23638 17.5193 6.66569 17.1578C7.09499 16.7963 7.37767 16.1637 7.37767 16.1637C7.37767 16.1637 7.78442 15.5989 7.01619 15.26C6.24796 14.9211 5.8639 14.6836 5.89779 14.3333C5.93168 13.9831 5.98782 13.7914 6.17989 13.8365C6.37194 13.8817 6.82415 14.695 8.56396 15.0678C10.3038 15.4406 12 15.3843 12 15.3843C12 15.3843 13.6963 15.4406 15.4361 15.0678C17.1759 14.695 17.6281 13.8817 17.8202 13.8365C18.0122 13.7914 18.0684 13.9831 18.1023 14.3333C18.1362 14.6836 17.7521 14.9211 16.9839 15.26C16.2157 15.5989 16.6224 16.1637 16.6224 16.1637C16.6224 16.1637 16.9051 16.7963 17.3344 17.1578C17.7637 17.5193 18.3961 17.2597 19.3225 16.8982C20.2489 16.5366 21.129 15.9361 22.1245 15.3614C23.12 14.7866 23.2313 14.0283 23.2539 13.0567C23.2765 12.0851 23.1184 8.90118 22.4405 7.25C21.7627 5.59882 21.3451 4.47665 20.8254 3.51636C20.3057 2.55607 19.8477 1.97425 19.4354 1.78784C19.023 1.60143 16.7239 0.668945 15.9613 0.668945C15.1988 0.668945 14.9733 1.20018 14.9733 1.20018L14.7076 1.78784C14.7076 1.78784 12.9214 1.44848 12.0118 1.448C11.1021 1.44751 9.29242 1.78784 9.29242 1.78784L9.0268 1.20018C9.0268 1.20018 8.8013 0.668945 8.03872 0.668945ZM8.1216 7.71883C8.13092 7.71876 8.14024 7.71876 8.14956 7.71883C9.26137 7.71883 10.1627 8.69166 10.1627 9.89171C10.1627 11.0918 9.26137 12.0646 8.14956 12.0646C7.03774 12.0646 6.13645 11.0918 6.13645 9.89171C6.13634 8.70335 7.02072 7.73533 8.1216 7.71883H8.1216ZM15.8505 7.71883C15.8598 7.71876 15.8691 7.71876 15.8785 7.71883C16.9793 7.73533 17.8637 8.70335 17.8636 9.89171C17.8636 11.0918 16.9623 12.0646 15.8505 12.0646C14.7387 12.0646 13.8374 11.0918 13.8374 9.89171C13.8374 8.69166 14.7387 7.71883 15.8505 7.71883H15.8505Z" fill="url(#paint0_linear_251_4543)"/>
<defs>
<linearGradient id="paint0_linear_251_4543" x1="23.2559" y1="-1.47017" x2="6.22329" y2="11.1614" gradientUnits="userSpaceOnUse">
<stop stop-color="#4466DF"/>
<stop offset="1" stop-color="#3456D0"/>
</linearGradient>
</defs>
</svg>
