<svg width="17" height="14" viewBox="0 0 17 14" fill="none" xmlns="http://www.w3.org/2000/svg">
<path d="M14.4006 1.10212C13.3002 0.587249 12.1235 0.213064 10.8934 0C10.7423 0.273141 10.5658 0.640521 10.4441 0.932771C9.13644 0.736113 7.84078 0.736113 6.55715 0.932771C6.43549 0.640521 6.25498 0.273141 6.10255 0C4.87107 0.213064 3.69308 0.588624 2.59264 1.10484C0.373039 4.45895 -0.228658 7.72974 0.072191 10.9541C1.54435 12.0535 2.97104 12.7213 4.37366 13.1583C4.71997 12.6817 5.02884 12.175 5.29492 11.641C4.78816 11.4485 4.30279 11.2108 3.84418 10.935C3.96585 10.8448 4.08486 10.7506 4.19984 10.6536C6.99705 11.962 10.0363 11.962 12.8001 10.6536C12.9164 10.7506 13.0354 10.8448 13.1558 10.935C12.6958 11.2122 12.2091 11.4498 11.7023 11.6424C11.9684 12.175 12.276 12.6831 12.6236 13.1597C14.0276 12.7226 15.4556 12.0548 16.9277 10.9541C17.2807 7.21625 16.3247 3.97549 14.4006 1.10212ZM5.676 8.97114C4.8363 8.97114 4.14768 8.18724 4.14768 7.23263C4.14768 6.27802 4.8216 5.49276 5.676 5.49276C6.53042 5.49276 7.21902 6.27665 7.20432 7.23263C7.20564 8.18724 6.53042 8.97114 5.676 8.97114ZM11.3239 8.97114C10.4842 8.97114 9.79562 8.18724 9.79562 7.23263C9.79562 6.27802 10.4695 5.49276 11.3239 5.49276C12.1783 5.49276 12.867 6.27665 12.8523 7.23263C12.8523 8.18724 12.1783 8.97114 11.3239 8.97114Z" fill="black"/>
</svg>
