<svg width="12" height="22" viewBox="0 0 12 22" fill="none" xmlns="http://www.w3.org/2000/svg">
<path d="M1.5375 12.5002H2.8125C2.925 12.5002 3.0375 12.6127 3.0375 12.7252V20.7502C3.0375 21.1627 3.375 21.5002 3.7875 21.5002H6.7125C7.125 21.5002 7.4625 21.1627 7.4625 20.7502V12.7252C7.4625 12.6127 7.575 12.5002 7.6875 12.5002H9.7875C10.1625 12.5002 10.5 12.2377 10.5375 11.8627L11.025 8.93769C11.1 8.4877 10.725 8.0377 10.275 8.0377H7.8C7.6125 8.0377 7.4625 7.8877 7.4625 7.7002V5.8252C7.4625 5.3377 7.725 5.0752 8.2125 5.0752H10.425C10.8375 5.0752 11.175 4.7377 11.175 4.3252V1.3252C11.175 0.912695 10.8375 0.575195 10.425 0.575195H7.7625C2.8875 0.575195 3 4.5127 3 5.0752V7.8127C3 7.9252 2.8875 8.0377 2.775 8.0377H1.5C1.0875 8.0377 0.75 8.3752 0.75 8.7877V11.7127C0.7875 12.1627 1.125 12.5002 1.5375 12.5002Z" fill="url(#paint0_linear_251_4549)"/>
<defs>
<linearGradient id="paint0_linear_251_4549" x1="11.175" y1="-2.11112" x2="-0.200052" y2="0.999687" gradientUnits="userSpaceOnUse">
<stop stop-color="#4466DF"/>
<stop offset="1" stop-color="#3456D0"/>
</linearGradient>
</defs>
</svg>
