<svg width="24" height="24" viewBox="0 0 24 24" fill="none" xmlns="http://www.w3.org/2000/svg">
<path d="M11.9991 8.8753C10.2788 8.8753 8.87492 10.2792 8.87492 11.9995C8.87492 13.7198 10.2788 15.1237 11.9991 15.1237C13.7195 15.1237 15.1234 13.7198 15.1234 11.9995C15.1234 10.2792 13.7195 8.8753 11.9991 8.8753ZM21.3695 11.9995C21.3695 10.7058 21.3812 9.42374 21.3085 8.13234C21.2359 6.63234 20.8937 5.30109 19.7968 4.20421C18.6976 3.10499 17.3687 2.76515 15.8687 2.69249C14.5749 2.61984 13.2929 2.63156 12.0015 2.63156C10.7077 2.63156 9.4257 2.61984 8.13429 2.69249C6.63429 2.76515 5.30304 3.10734 4.20617 4.20421C3.10695 5.30343 2.7671 6.63234 2.69445 8.13234C2.62179 9.42608 2.63351 10.7081 2.63351 11.9995C2.63351 13.2909 2.62179 14.5753 2.69445 15.8667C2.7671 17.3667 3.10929 18.698 4.20617 19.7948C5.30539 20.894 6.63429 21.2339 8.13429 21.3065C9.42805 21.3792 10.7101 21.3675 12.0015 21.3675C13.2952 21.3675 14.5773 21.3792 15.8687 21.3065C17.3687 21.2339 18.6999 20.8917 19.7968 19.7948C20.896 18.6956 21.2359 17.3667 21.3085 15.8667C21.3835 14.5753 21.3695 13.2933 21.3695 11.9995ZM11.9991 16.8066C9.33898 16.8066 7.19211 14.6597 7.19211 11.9995C7.19211 9.33937 9.33898 7.19249 11.9991 7.19249C14.6593 7.19249 16.8062 9.33937 16.8062 11.9995C16.8062 14.6597 14.6593 16.8066 11.9991 16.8066ZM17.0031 8.11827C16.382 8.11827 15.8804 7.61671 15.8804 6.99562C15.8804 6.37452 16.382 5.87296 17.0031 5.87296C17.6241 5.87296 18.1257 6.37452 18.1257 6.99562C18.1259 7.1431 18.097 7.28917 18.0406 7.42546C17.9843 7.56175 17.9016 7.68558 17.7973 7.78987C17.693 7.89415 17.5692 7.97684 17.4329 8.03319C17.2966 8.08955 17.1505 8.11846 17.0031 8.11827Z" fill="black"/>
</svg>
