<svg width="20" height="20" viewBox="0 0 20 20" fill="none" xmlns="http://www.w3.org/2000/svg">
<path d="M10 12.082C11.3807 12.082 12.5 10.9627 12.5 9.58203C12.5 8.20132 11.3807 7.08203 10 7.08203C8.61929 7.08203 7.5 8.20132 7.5 9.58203C7.5 10.9627 8.61929 12.082 10 12.082Z" stroke="black" stroke-width="1.5" stroke-linecap="round" stroke-linejoin="round"/>
<path d="M17.089 13.543C16.4349 14.6513 15.6989 14.968 14.3088 14.493C13.4093 14.1763 12.3463 14.7305 12.1828 15.6805C11.9375 17.1055 11.2833 17.5013 9.97494 17.5013C8.6666 17.5013 8.01244 17.0263 7.76712 15.6805C7.60358 14.7305 6.54055 14.1763 5.64107 14.493C4.25096 14.968 3.51502 14.6513 2.86085 13.543C2.20668 12.5138 2.452 11.643 3.51502 10.7721C4.25096 10.1388 4.16919 9.03047 3.43325 8.4763C2.37023 7.44714 2.28845 6.73464 2.94262 5.6263C3.59679 4.59714 4.4145 4.35964 5.72284 4.75547C6.62233 5.07214 7.60358 4.4388 7.76712 3.56797C8.09421 2.14297 8.6666 1.66797 10.0567 1.66797C11.2833 1.66797 11.9375 2.3013 12.1828 3.64714C12.3463 4.51797 13.4093 5.07214 14.3088 4.75547C15.6989 4.2013 16.4349 4.51797 17.089 5.6263C17.7432 6.73464 17.6614 7.44714 16.5166 8.39714C15.7807 9.03047 15.7807 10.1388 16.5166 10.7721C17.6614 11.7221 17.7432 12.4346 17.089 13.543Z" stroke="black" stroke-width="1.5" stroke-linecap="round" stroke-linejoin="round"/>
</svg>
