<svg width="22" height="18" viewBox="0 0 22 18" fill="none" xmlns="http://www.w3.org/2000/svg">
<path d="M20.15 0.0746262L0.950023 7.57463C0.312523 7.79963 0.350023 8.69963 0.987523 8.88713L4.62502 9.97463C5.41252 10.1996 6.05002 10.7996 6.27502 11.5871L7.70002 16.1246C7.88752 16.7246 8.63752 16.9121 9.08752 16.4621L11.0375 14.4746C11.375 14.1371 11.8625 14.0996 12.2375 14.3621L16.55 17.5121C17.15 17.9621 18.0125 17.6246 18.1625 16.8746L21.425 1.19963C21.65 0.412126 20.9 -0.225374 20.15 0.0746262ZM17.75 3.52463L10.025 10.3496C9.61252 10.7246 9.31252 11.2496 9.27502 11.8121C9.20002 12.3746 8.41252 12.4496 8.22502 11.9246L7.88752 10.7996C7.62502 9.97463 7.96252 9.11213 8.67502 8.66213L17.4875 3.18713C17.7125 3.03713 17.9375 3.33713 17.75 3.52463Z" fill="url(#paint0_linear_251_4546)"/>
<defs>
<linearGradient id="paint0_linear_251_4546" x1="21.4656" y1="-2.2753" x2="4.17183" y2="8.96428" gradientUnits="userSpaceOnUse">
<stop stop-color="#4466DF"/>
<stop offset="1" stop-color="#3456D0"/>
</linearGradient>
</defs>
</svg>
