<svg width="21" height="18" viewBox="0 0 21 18" fill="none" xmlns="http://www.w3.org/2000/svg">
<path d="M2.27539 6.97461C2.31289 6.97461 2.31289 6.97461 2.27539 6.97461C1.93789 6.97461 1.60039 6.89961 1.30039 6.82461C0.812891 6.67461 0.362891 7.12461 0.512891 7.57461C0.925391 9.18711 2.20039 10.4621 3.81289 10.7996C3.43789 10.9121 3.06289 10.9496 2.68789 10.9496C2.31289 10.9496 2.05039 11.3621 2.23789 11.6996C2.95039 13.0121 4.33789 13.9121 5.87539 13.9496H6.25039C6.66289 13.9496 7.00039 14.2871 7.00039 14.6996C7.00039 15.1121 6.66289 15.4496 6.25039 15.4496C5.76289 15.4496 5.16289 15.4121 4.56289 15.2621C4.18789 15.1871 3.81289 15.1871 3.47539 15.2996C2.83789 15.5246 2.16289 15.7121 1.45039 15.7871C1.18789 15.8246 1.00039 16.0121 1.00039 16.2746C1.00039 16.4621 1.11289 16.6496 1.30039 16.7246C2.76289 17.3621 4.41289 17.7371 6.13789 17.7371C14.0504 17.7371 18.4004 11.0246 18.4004 5.17461C18.4004 4.83711 18.5504 4.49961 18.8129 4.27461C19.2629 3.89961 19.6754 3.48711 20.0504 2.99961C20.2004 2.81211 20.0129 2.54961 19.7879 2.62461C19.3379 2.77461 18.8879 2.88711 18.4004 2.96211C18.3254 2.96211 18.2879 2.88711 18.3629 2.81211C18.9254 2.39961 19.4129 1.83711 19.7129 1.19961C19.8254 0.974609 19.6004 0.749609 19.3754 0.862109C18.9629 1.08711 18.5129 1.23711 18.0629 1.38711C17.6129 1.53711 17.0879 1.42461 16.7129 1.12461C16.0004 0.562109 15.0629 0.224609 14.0879 0.224609C12.1004 0.224609 10.4129 1.61211 9.92539 3.52461C9.85039 3.86211 10.1129 4.16211 10.4504 4.16211C11.0504 4.12461 11.6504 4.04961 12.1004 3.97461C12.4754 3.89961 12.8504 4.08711 13.0004 4.42461C13.1879 4.87461 12.9254 5.32461 12.5129 5.43711C10.7879 5.92461 8.87539 5.58711 8.87539 5.58711C5.95039 5.17461 3.36289 3.74961 1.48789 1.68711C1.22539 1.38711 0.737891 1.49961 0.625391 1.83711C0.475391 2.28711 0.400391 2.77461 0.400391 3.29961C0.400391 4.83711 1.15039 6.18711 2.27539 6.97461Z" fill="url(#paint0_linear_251_4540)"/>
<defs>
<linearGradient id="paint0_linear_251_4540" x1="20.1043" y1="-2.02362" x2="3.3772" y2="8.30719" gradientUnits="userSpaceOnUse">
<stop stop-color="#4466DF"/>
<stop offset="1" stop-color="#3456D0"/>
</linearGradient>
</defs>
</svg>
