<svg width="21" height="20" viewBox="0 0 21 20" fill="none" xmlns="http://www.w3.org/2000/svg">
<path d="M10.4998 12.5C6.3248 12.5 2.9248 15.3 2.9248 18.75C2.9248 18.9833 3.10814 19.1667 3.34147 19.1667H17.6581C17.8915 19.1667 18.0748 18.9833 18.0748 18.75C18.0748 15.3 14.6748 12.5 10.4998 12.5Z" fill="white"/>
<path d="M13.5913 3.05033C12.8413 2.20033 11.7247 1.66699 10.4997 1.66699C9.33301 1.66699 8.26634 2.14199 7.50801 2.92533C6.78301 3.67533 6.33301 4.70866 6.33301 5.83366C6.33301 6.61699 6.54967 7.35033 6.94134 7.97533C7.14967 8.33366 7.41634 8.65866 7.73301 8.92533C8.45801 9.59199 9.42467 10.0003 10.4997 10.0003C12.0247 10.0003 13.3413 9.18366 14.0663 7.97533C14.283 7.61699 14.4497 7.21699 14.5413 6.80033C14.6247 6.49199 14.6663 6.16699 14.6663 5.83366C14.6663 4.76699 14.258 3.79199 13.5913 3.05033ZM12.058 6.60033H11.283V7.40866C11.283 7.84199 10.933 8.19199 10.4997 8.19199C10.0663 8.19199 9.71634 7.84199 9.71634 7.40866V6.60033H8.94134C8.50801 6.60033 8.15801 6.25033 8.15801 5.81699C8.15801 5.38366 8.50801 5.03366 8.94134 5.03366H9.71634V4.29199C9.71634 3.85866 10.0663 3.50866 10.4997 3.50866C10.933 3.50866 11.283 3.85866 11.283 4.29199V5.03366H12.058C12.4913 5.03366 12.8413 5.38366 12.8413 5.81699C12.8413 6.25033 12.4913 6.60033 12.058 6.60033Z" fill="white"/>
</svg>
