<svg width="33" height="32" viewBox="0 0 33 32" fill="none" xmlns="http://www.w3.org/2000/svg">
<path d="M13.0744 5.56636L13.081 5.56111L13.0875 5.55572L15.2409 3.76988C15.9316 3.22062 17.0888 3.22587 17.7587 3.76955C17.759 3.76976 17.7592 3.76996 17.7595 3.77016L19.9281 5.54426C19.9285 5.54458 19.9289 5.54491 19.9293 5.54524C20.2248 5.78826 20.61 5.97812 20.9751 6.10705C21.3414 6.23644 21.7586 6.32954 22.1375 6.32954H24.475C25.5547 6.32954 26.3787 7.16616 26.3787 8.10164V10.3232C26.3787 10.7062 26.4804 11.1153 26.6198 11.4699C26.7593 11.8248 26.963 12.1921 27.2199 12.4741C27.2202 12.4744 27.2205 12.4748 27.2208 12.4751L29.0874 14.5361C29.0877 14.5364 29.088 14.5367 29.0882 14.537C29.6416 15.1531 29.6428 16.2101 29.0996 16.8277L27.2345 18.8869C27.2342 18.8873 27.2338 18.8877 27.2334 18.8881C26.9749 19.172 26.7716 19.544 26.633 19.8984C26.4947 20.2521 26.3925 20.6613 26.3925 21.0389V23.2604C26.3925 24.1959 25.5684 25.0325 24.4887 25.0325H22.1512C21.7665 25.0325 21.3493 25.1251 20.9824 25.2554C20.6168 25.3852 20.2365 25.5754 19.9428 25.817C19.9425 25.8173 19.9422 25.8175 19.9419 25.8178L17.7746 27.5907C17.0841 28.1414 15.9253 28.1366 15.2549 27.5924C15.2547 27.5922 15.2544 27.5921 15.2542 27.5919L13.0855 25.8178C13.0852 25.8175 13.0848 25.8172 13.0844 25.8169C12.7889 25.5738 12.4037 25.3839 12.0386 25.255C11.6722 25.1256 11.255 25.0325 10.8762 25.0325H8.49746C7.41776 25.0325 6.59371 24.1959 6.59371 23.2604V21.0258C6.59371 20.6478 6.4912 20.2418 6.35523 19.8927C6.2185 19.5417 6.02048 19.1777 5.77513 18.8978L5.77516 18.8978L5.77052 18.8926L3.91675 16.8176C3.9164 16.8172 3.91604 16.8168 3.91568 16.8164C3.37058 16.1987 3.37055 15.1634 3.91561 14.5457C3.91599 14.5453 3.91637 14.5448 3.91675 14.5444L5.77052 12.4694L5.77054 12.4694L5.77513 12.4642C6.02048 12.1844 6.2185 11.8203 6.35523 11.4693C6.4912 11.1202 6.59371 10.7143 6.59371 10.3363V8.10164C6.59371 7.16616 7.41776 6.32954 8.49746 6.32954H10.8762C11.2547 6.32954 11.6712 6.23655 12.0353 6.10983C12.3992 5.98322 12.7814 5.79842 13.0744 5.56636Z" fill="url(#paint0_linear_251_4551)" stroke="white" stroke-width="1.5"/>
<path d="M22.2195 13.2114L15.5782 19.5232C15.3857 19.7062 15.1245 19.8107 14.8495 19.8107C14.5745 19.8107 14.3132 19.7062 14.1207 19.5232L10.7932 16.3608C10.3945 15.9818 10.3945 15.3545 10.7932 14.9756C11.192 14.5966 11.852 14.5966 12.2507 14.9756L14.8495 17.4454L20.762 11.8262C21.1607 11.4473 21.8207 11.4473 22.2195 11.8262C22.6182 12.2052 22.6182 12.8324 22.2195 13.2114Z" fill="white"/>
<defs>
<linearGradient id="paint0_linear_251_4551" x1="30.2551" y1="-0.746244" x2="6.06982" y2="13.2182" gradientUnits="userSpaceOnUse">
<stop stop-color="#4466DF"/>
<stop offset="1" stop-color="#3456D0"/>
</linearGradient>
</defs>
</svg>
